# xmcd
#
# Track frame offsets:
#	150
#	14701
#	29829
#	44566
#	59420
#	76482
#	90901
#	107497
#	128206
#	146854
#	161405
#	176533
#	191270
#	206124
#	223186
#	237605
#	254201
#	274910
#
# Disc length: 3914 seconds
#
# Revision: 1
# Processed by: cddbd v1.5.2PL0 Copyright (c) Steve Scherf et al.
# Submitted via: audiograbber 1.83.01
#
DISCID=1a0f4812
DTITLE=country - phmc0911
DYEAR=09
DGENRE=Country
TTITLE0=George Strait - Twang
TTITLE1=Steel Magnolia - Keep On Loving You
TTITLE2=Fast Ryde - That Thang
TTITLE3=Jypsi - Mister Officer
TTITLE4=Brad Paisley - Water
TTITLE5=Steve Azar - Moo La Moo
TTITLE6=Big Kenny - Long after I'm Gone
TTITLE7=Holly Williams - Alone
TTITLE8=Daniel Smith - Life, Liberty and The Pursuit of happy Hour
TTITLE9=George Strait - Twang (vocal)
TTITLE10=Steel Magnolia - Keep On Loving you (vocal)
TTITLE11=Fast Ryde - That Thang  (vocal)
TTITLE12=Jypsi - Mister Officer  (vocal)
TTITLE13=Brad Paisley - Water  (vocal)
TTITLE14=Steve Azar - Moo La Moo  (vocal)
TTITLE15=Big Kenney - Long After I'm Gone  (vocal)
TTITLE16=Holly Williams - Alone  (vocal)
TTITLE17=Daniel Smith - , Liberty and The Pursuit Of Happy Hour  (vocal)
EXTD=
EXTT0=
EXTT1=
EXTT2=
EXTT3=
EXTT4=
EXTT5=
EXTT6=
EXTT7=
EXTT8=
EXTT9=
EXTT10=
EXTT11=
EXTT12=
EXTT13=
EXTT14=
EXTT15=
EXTT16=
EXTT17=
PLAYORDER=
